<svg fill="none" height="255" viewBox="0 0 1692 255" width="1692" xmlns="http://www.w3.org/2000/svg"><g fill="#57565a"><path d="m1614.43 184.832c0 40.503-37.65 69.026-105.54 69.026-46.78 0-88.42-14.261-119.23-42.785l21.68-25.671c27.38 25.671 59.33 37.081 99.26 37.081 44.5 0 69.03-12.551 69.03-34.229 0-21.677-25.1-27.382-75.3-31.946-55.34-4.564-107.25-17.684-107.25-61.0401 0-42.2148 46.21-65.6041 103.25-65.6041 43.36 0 80.44 13.6913 104.4 35.3691l-21.68 25.1007c-20.54-18.8255-49.06-27.953-82.15-28.5235-31.94-.5704-69.59 7.9866-69.59 31.3759 0 22.248 33.65 26.242 77.01 30.235 62.75 3.993 106.11 17.684 106.11 61.611z"/><path d="m350.269 254.43c-70.739 0-127.786-50.202-127.786-111.812 0-62.1815 57.047-112.3829 127.786-112.3829 70.738 0 128.355 50.2014 128.355 112.3829 0 61.61-57.047 111.812-128.355 111.812zm0-191.6781c-53.054 0-95.839 35.9396-95.839 79.8661 0 43.926 42.785 79.865 95.839 79.865 53.053 0 95.839-35.939 95.839-79.865 0-43.9265-42.786-79.8661-95.839-79.8661z"/><path d="m128.356 254.43c-70.7386 0-128.356-50.202-128.356-111.812 0-62.1815 57.6174-112.3829 128.356-112.3829 23.959 0 46.778 5.7047 67.315 16.5436l-15.403 28.5235c-15.402-8.557-33.657-12.5503-51.912-12.5503-53.054 0-95.8392 35.9396-95.8392 79.8661 0 43.926 42.7852 79.865 95.8392 79.865 18.255 0 35.939-4.563 51.342-12.55l15.403 28.524c-19.967 10.268-43.356 15.973-66.745 15.973z"/><path d="m612.685 30.2351h-88.423v29.094 162.5839 32.517h88.423c70.738 0 128.355-50.202 128.355-112.383 0-61.6106-57.617-111.8119-128.355-111.8119zm.57 191.6779h-56.477v-159.1611h55.907c53.053 0 95.838 35.9396 95.838 79.8661 0 43.926-42.785 79.295-95.268 79.295z"/><path d="m826.042 70.7385c5.134-5.1343 15.403-7.9866 29.664-7.9866h116.376v-32.5168h-116.376c-23.959 0-41.073 5.7047-53.053 17.6846-18.826 18.8255-18.255 47.9194-17.685 78.7253v15.973 15.973c-.57 30.805-1.141 59.899 17.685 78.725 11.409 11.979 29.094 17.684 53.053 17.684h116.376v-32.517h-116.376c-14.261 0-24.53-2.852-29.664-7.986-9.128-9.128-8.557-30.806-8.557-55.336 0-.57 0-1.141 0-2.282h104.966v-32.516h-104.966c-.571-23.96-.571-45.0675 8.557-53.6245z"/><path d="m1349.16 30.2351h-32.52v224.1949h32.52z"/><path d="m1663.49 34.2284c5.13 0 9.12-3.4228 9.12-9.1275 0-5.1342-3.42-9.1275-9.69-9.1275h-14.84v33.0872h4.57v-14.2617h6.27l9.13 14.8322h5.13zm-10.84-3.4228v-10.8389h9.13c3.99 0 6.27 2.2819 6.27 5.1342 0 3.4228-2.28 5.7047-6.27 5.7047z"/><path d="m1658.92 65.0336c-17.68 0-32.51-14.8323-32.51-32.5168 0-17.6846 14.26-32.5168 32.51-32.5168 18.26 0 32.52 14.2617 32.52 32.5168.57 17.6845-14.26 32.5168-32.52 32.5168zm0-59.3289c-14.83 0-26.81 11.9799-26.81 26.8121s11.98 27.3825 26.81 27.3825c14.84 0 27.39-11.9798 27.39-27.3825 0-14.8322-12.55-26.8121-27.39-26.8121z"/></g><path d="m1112.99 162.014c-4.57 7.986-9.13 15.403-13.7 22.819-14.83 21.678-48.49 37.08-82.14 37.08v32.517c44.49 0 88.42-20.537 108.96-50.772 1.71-2.852 3.99-5.704 5.7-8.557z" fill="#4c9c45"/><path d="m1178.59 59.8995c-7.99 7.4161-14.83 15.4027-21.11 23.9598l17.69 31.3757c7.41-11.98 15.97-22.8187 25.1-31.3757 20.53-18.8255 46.78-21.1074 71.31-21.1074v-32.5168c-31.38 0-65.04 3.9933-92.99 29.6644z" fill="#4c9c45"/><path d="m1189.43 184.833c-7.42-11.409-14.26-23.959-21.11-37.08-18.25-33.088-36.51-67.8862-65.03-88.9936-18.83-14.2617-52.49-27.953-86.14-27.953v31.9463c30.23 0 57.04 14.2617 66.74 21.6779 22.82 17.1144 39.93 48.4894 55.91 78.7244 7.41 13.121 14.83 27.383 22.25 39.363 29.09 45.637 77.01 51.342 110.1 51.342v-32.517c-41.65-.57-66.75-11.409-82.72-36.51z" fill="#4c9c45"/></svg>